<svg width="24" height="26" viewBox="0 0 24 26" fill="none" xmlns="http://www.w3.org/2000/svg"><g clip-path="url(#clip0)" fill="#16ACDC"><path d="M11.995.848c-5.303 0-9.62 4.377-9.62 9.754a9.73 9.73 0 00.236 2.159c.146.658.362 1.306.644 1.923 1.037 2.474 3.316 6.275 8.317 10.347a.678.678 0 00.856 0c4.996-4.072 7.28-7.873 8.317-10.347a9.596 9.596 0 00.709-2.25c.11-.602.171-1.22.171-1.832-.01-5.377-4.327-9.754-9.63-9.754zm8.11 11.346c0 .01-.005.02-.005.03-.005.026-.02.103-.045.22v.01a8.18 8.18 0 01-.558 1.664c-.005.005-.005.015-.01.02-.941 2.26-3.004 5.71-7.492 9.47-4.488-3.76-6.551-7.21-7.492-9.47-.005-.005-.005-.015-.01-.02a8.723 8.723 0 01-.559-1.664v-.01c-.03-.117-.04-.194-.045-.22 0-.01-.005-.02-.005-.035a8.445 8.445 0 01-.15-1.592c0-4.617 3.707-8.377 8.26-8.377 4.554 0 8.262 3.76 8.262 8.377 0 .541-.05 1.077-.15 1.597z"/><path d="M11.995 4.516c-3.366 0-6.108 2.78-6.108 6.194 0 3.413 2.742 6.193 6.108 6.193 3.366 0 6.108-2.78 6.108-6.193s-2.742-6.194-6.108-6.194zm0 11.01c-2.621 0-4.75-2.163-4.75-4.816s2.134-4.817 4.75-4.817 4.75 2.164 4.75 4.817-2.129 4.816-4.75 4.816z"/></g><defs><clipPath id="clip0"><path fill="#fff" transform="translate(0 .848)" d="M0 0h24v24.336H0z"/></clipPath></defs></svg>