<svg width="24" height="25" viewBox="0 0 24 25" fill="none" xmlns="http://www.w3.org/2000/svg"><g clip-path="url(#clip0)" fill="#16ACDC"><path d="M21.07 3.47H2.935C1.316 3.47 0 4.803 0 6.444v12.569c0 1.641 1.316 2.976 2.935 2.976h18.13c1.619 0 2.935-1.335 2.935-2.976V6.45c.005-1.641-1.311-2.98-2.93-2.98zm1.594 15.544c0 .89-.715 1.616-1.594 1.616H2.935a1.607 1.607 0 01-1.594-1.616V6.45c0-.891.715-1.616 1.594-1.616h18.13c.88 0 1.594.725 1.594 1.616v12.564h.005z"/><path d="M15.136 12.573l5.87-5.337a.69.69 0 00.05-.962.667.667 0 00-.95-.05l-8.094 7.366-1.579-1.43c-.005-.005-.01-.01-.01-.015a.996.996 0 00-.109-.095L3.888 6.219a.663.663 0 00-.948.055.686.686 0 00.054.962l5.94 5.383-5.915 5.614a.681.681 0 00.462 1.178.67.67 0 00.457-.18l6.004-5.696 1.628 1.475a.665.665 0 00.894-.005l1.674-1.52 5.969 5.75a.665.665 0 00.948-.025.69.69 0 00-.025-.962l-5.894-5.675z"/></g><defs><clipPath id="clip0"><path fill="#fff" transform="translate(0 .562)" d="M0 0h24v24.336H0z"/></clipPath></defs></svg>