<svg width="18" height="20" viewBox="0 0 18 20" fill="none" xmlns="http://www.w3.org/2000/svg"><path class="color" opacity=".54" fill-rule="evenodd" clip-rule="evenodd" d="M11.348 11.535h-.564l-.196-.217a5.46 5.46 0 001.113-3.337c0-2.836-2.065-5.134-4.611-5.134-2.547 0-4.611 2.298-4.611 5.134 0 2.835 2.064 5.133 4.61 5.133 1.146 0 2.191-.467 2.998-1.237l.196.217v.625l3.545 3.942 1.058-1.177-3.538-3.95zm-4.258 0c-1.764 0-3.192-1.59-3.192-3.554 0-1.963 1.428-3.554 3.192-3.554 1.763 0 3.192 1.591 3.192 3.554 0 1.963-1.43 3.554-3.192 3.554z" fill="#000"/></svg>