<svg width="24" height="25" viewBox="0 0 24 25" fill="none" xmlns="http://www.w3.org/2000/svg"><g clip-path="url(#clip0)" fill="#16ACDC"><path d="M18.967 15.637c-.49-.519-1.083-.796-1.712-.796-.623 0-1.22.272-1.732.79l-1.6 1.619c-.132-.072-.264-.14-.39-.206a6.328 6.328 0 01-.502-.272c-1.5-.966-2.862-2.224-4.169-3.852-.633-.812-1.059-1.495-1.368-2.188.416-.386.8-.786 1.176-1.171.141-.144.283-.293.425-.437 1.064-1.079 1.064-2.476 0-3.554L7.712 4.167c-.157-.159-.319-.323-.47-.487a24.088 24.088 0 00-.953-.956c-.491-.493-1.08-.755-1.697-.755-.618 0-1.216.262-1.722.755l-.01.01-1.723 1.762A3.78 3.78 0 00.038 6.885c-.121 1.5.314 2.896.649 3.81.82 2.245 2.046 4.325 3.875 6.555 2.218 2.686 4.888 4.807 7.937 6.302 1.165.56 2.72 1.222 4.457 1.335.107.005.218.01.32.01 1.17 0 2.152-.426 2.922-1.273.005-.01.015-.016.02-.026.264-.324.568-.616.887-.93.218-.21.44-.431.659-.662.501-.53.764-1.146.764-1.777 0-.637-.268-1.248-.78-1.762l-2.78-2.83zm1.814 5.408c-.005 0-.005.005 0 0-.198.216-.4.411-.618.627-.33.318-.664.652-.978 1.027-.511.555-1.114.817-1.904.817-.076 0-.157 0-.233-.005-1.505-.098-2.903-.694-3.951-1.202C10.23 20.9 7.712 18.903 5.62 16.37c-1.727-2.11-2.882-4.063-3.647-6.158-.47-1.28-.643-2.276-.567-3.215.05-.601.278-1.1.699-1.526L3.832 3.72c.248-.237.512-.365.77-.365.32 0 .578.195.74.36l.015.015c.309.293.603.596.912.92.157.164.319.328.48.497L8.133 6.55c.537.544.537 1.047 0 1.592-.147.149-.29.298-.436.442-.425.441-.83.852-1.271 1.253-.01.01-.02.015-.026.026-.435.441-.354.873-.263 1.165l.015.047c.36.883.866 1.715 1.636 2.707l.005.005c1.398 1.746 2.872 3.107 4.498 4.15.208.133.42.241.623.344.183.092.355.18.502.272.02.01.04.026.06.036.173.087.335.128.502.128.42 0 .684-.267.77-.354l1.732-1.756c.173-.175.446-.386.765-.386.314 0 .573.2.73.375a.995.995 0 00.01.01l2.79 2.83c.523.524.523 1.064.006 1.608zM12.97 6.35a6.394 6.394 0 013.495 1.84 6.578 6.578 0 011.814 3.543.682.682 0 00.673.576c.04 0 .076-.005.117-.01a.693.693 0 00.562-.802 7.96 7.96 0 00-2.193-4.289 7.777 7.777 0 00-4.23-2.224.688.688 0 00-.79.565.685.685 0 00.552.802zm11.002 4.947a13.095 13.095 0 00-3.612-7.063A12.798 12.798 0 0013.396.572a.682.682 0 00-.786.565c-.06.38.188.735.563.801 2.36.406 4.513 1.541 6.225 3.272a11.693 11.693 0 013.227 6.313.682.682 0 00.673.575c.04 0 .076-.005.117-.01a.68.68 0 00.557-.791z"/></g><defs><clipPath id="clip0"><path fill="#fff" transform="translate(0 .562)" d="M0 0h24v24.336H0z"/></clipPath></defs></svg>