<svg width="24" height="26" viewBox="0 0 24 26" fill="none" xmlns="http://www.w3.org/2000/svg">
<g clip-path="url(#clip0)">
<path d="M11.9949 0.847656C6.69174 0.847656 2.37476 5.22507 2.37476 10.6025C2.37476 11.2147 2.4301 11.832 2.54582 12.434C2.55086 12.4698 2.57098 12.5769 2.61123 12.7606C2.75715 13.4187 2.9735 14.0666 3.25526 14.684C4.29174 17.1584 6.57098 20.9593 11.5722 25.0306C11.698 25.1326 11.849 25.1837 11.9999 25.1837C12.1509 25.1837 12.3018 25.1326 12.4276 25.0306C17.4238 20.9593 19.7081 17.1584 20.7446 14.684C21.0263 14.0666 21.2427 13.4238 21.3886 12.7606C21.4288 12.5769 21.449 12.4698 21.454 12.434C21.5647 11.832 21.6251 11.2147 21.6251 10.6025C21.615 5.22507 17.298 0.847656 11.9949 0.847656ZM20.1056 12.1943C20.1056 12.2045 20.1005 12.2147 20.1005 12.2249C20.0955 12.2504 20.0804 12.3269 20.0553 12.4442C20.0553 12.4493 20.0553 12.4493 20.0553 12.4544C19.9295 13.0259 19.7433 13.582 19.4968 14.1177C19.4917 14.1228 19.4917 14.133 19.4867 14.1381C18.5458 16.3982 16.4829 19.8471 11.9949 23.6072C7.50683 19.8471 5.44394 16.3982 4.50306 14.1381C4.49803 14.133 4.49803 14.1228 4.49299 14.1177C4.25149 13.5871 4.06532 13.0259 3.9345 12.4544C3.9345 12.4493 3.9345 12.4493 3.9345 12.4442C3.90432 12.3269 3.89425 12.2504 3.88922 12.2249C3.88922 12.2147 3.88419 12.2045 3.88419 12.1892C3.78356 11.6637 3.73325 11.1331 3.73325 10.5974C3.73325 5.98015 7.44142 2.22006 11.9949 2.22006C16.5483 2.22006 20.2565 5.98015 20.2565 10.5974C20.2565 11.1382 20.2062 11.6739 20.1056 12.1943Z" fill="#16ACDC"/>
<path d="M11.9949 4.51599C8.62886 4.51599 5.88672 7.29652 5.88672 10.7097C5.88672 14.1228 8.62886 16.9034 11.9949 16.9034C15.3609 16.9034 18.1031 14.1228 18.1031 10.7097C18.1031 7.29652 15.3609 4.51599 11.9949 4.51599ZM11.9949 15.5259C9.37351 15.5259 7.24521 13.3627 7.24521 10.7097C7.24521 8.0567 9.37854 5.8935 11.9949 5.8935C14.6112 5.8935 16.7446 8.0567 16.7446 10.7097C16.7446 13.3627 14.6163 15.5259 11.9949 15.5259Z" fill="#16ACDC"/>
</g>
<defs>
<clipPath id="clip0">
<rect width="24" height="24.336" fill="white" transform="translate(0 0.847656)"/>
</clipPath>
</defs>
</svg>
