<svg width="24" height="25" viewBox="0 0 24 25" fill="none" xmlns="http://www.w3.org/2000/svg">
<g clip-path="url(#clip0)">
<path d="M21.0701 3.46936H2.93482C1.31595 3.46936 0 4.80374 0 6.44527V19.0136C0 20.6551 1.31595 21.9895 2.93482 21.9895H21.0652C22.684 21.9895 24 20.6551 24 19.0136V6.45031C24.005 4.80877 22.689 3.46936 21.0701 3.46936ZM22.6642 19.0136C22.6642 19.9049 21.9491 20.6299 21.0701 20.6299H2.93482C2.05587 20.6299 1.34078 19.9049 1.34078 19.0136V6.45031C1.34078 5.55904 2.05587 4.83395 2.93482 4.83395H21.0652C21.9441 4.83395 22.6592 5.55904 22.6592 6.45031V19.0136H22.6642Z" fill="#16ACDC"/>
<path d="M15.1359 12.5733L21.0056 7.23579C21.2787 6.98402 21.3035 6.55602 21.0552 6.27403C20.8069 5.99709 20.3848 5.97191 20.1067 6.22368L12.0124 13.5904L10.4332 12.1604C10.4283 12.1554 10.4233 12.1503 10.4233 12.1453C10.3885 12.11 10.3538 12.0798 10.3141 12.0496L3.88824 6.21864C3.61015 5.96688 3.18805 5.99205 2.93976 6.27403C2.69147 6.55602 2.71629 6.98402 2.99438 7.23579L8.93355 12.6186L3.01921 18.2331C2.75106 18.4899 2.73616 18.9179 2.98942 19.1948C3.1235 19.3358 3.30227 19.4113 3.48104 19.4113C3.64491 19.4113 3.80878 19.3509 3.9379 19.2301L9.94162 13.5351L11.5704 15.0104C11.6995 15.1262 11.8584 15.1816 12.0174 15.1816C12.1763 15.1816 12.3401 15.1212 12.4643 15.0054L14.1378 13.4847L20.1067 19.2351C20.2358 19.361 20.4047 19.4214 20.5686 19.4214C20.7473 19.4214 20.9211 19.3509 21.0552 19.2099C21.3085 18.938 21.2985 18.505 21.0304 18.2482L15.1359 12.5733Z" fill="#16ACDC"/>
</g>
<defs>
<clipPath id="clip0">
<rect width="24" height="24.336" fill="white" transform="translate(0 0.561523)"/>
</clipPath>
</defs>
</svg>
