<svg width="18" height="20" viewBox="0 0 18 20" fill="none" xmlns="http://www.w3.org/2000/svg">
<path class="color" opacity="0.54" fill-rule="evenodd" clip-rule="evenodd" d="M11.3475 11.5347H10.7842L10.5884 11.3183C11.2801 10.4203 11.7008 9.25617 11.7008 7.98065C11.7008 5.14528 9.63641 2.84697 7.08965 2.84697C4.54288 2.84697 2.47852 5.14528 2.47852 7.98065C2.47852 10.816 4.54288 13.1143 7.08965 13.1143C8.23534 13.1143 9.28029 12.6468 10.0869 11.8775L10.2827 12.0939V12.7194L13.8283 16.6613L14.886 15.4837L11.3475 11.5347ZM7.09003 11.5347C5.32645 11.5347 3.89771 9.94407 3.89771 7.98063C3.89771 6.01798 5.32645 4.42654 7.09003 4.42654C8.8529 4.42654 10.2824 6.01798 10.2824 7.98063C10.2824 9.94407 8.8529 11.5347 7.09003 11.5347Z" fill="black"/>
</svg>
