<svg width="24" height="25" viewBox="0 0 24 25" fill="none" xmlns="http://www.w3.org/2000/svg">
<g clip-path="url(#clip0)">
<path d="M18.9674 15.6368C18.4761 15.118 17.8835 14.8406 17.2554 14.8406C16.6323 14.8406 16.0346 15.1129 15.523 15.6316L13.9223 17.2495C13.7906 17.1776 13.6589 17.1109 13.5323 17.0441C13.35 16.9516 13.1777 16.8643 13.0308 16.7719C11.5315 15.8063 10.1689 14.5479 8.86204 12.9197C8.22887 12.1081 7.80338 11.425 7.49439 10.7316C7.90975 10.3464 8.29472 9.94576 8.66956 9.56054C8.81139 9.41672 8.95322 9.26777 9.09505 9.12395C10.1588 8.04533 10.1588 6.64827 9.09505 5.56965L7.7122 4.16744C7.55518 4.00822 7.39309 3.84386 7.24113 3.6795C6.9372 3.36105 6.61809 3.03233 6.28884 2.72415C5.7975 2.23107 5.20991 1.96912 4.59194 1.96912C3.97397 1.96912 3.37625 2.23107 2.86972 2.72415C2.86465 2.72929 2.86465 2.72929 2.85959 2.73442L1.13736 4.49617C0.488995 5.15361 0.119223 5.95487 0.0381772 6.88454C-0.0833915 8.38433 0.35223 9.7814 0.686544 10.6957C1.50713 12.9402 2.73295 15.0204 4.56155 17.2495C6.78018 19.9358 9.44962 22.0571 12.499 23.5518C13.664 24.1116 15.2191 24.7742 16.9565 24.8872C17.0629 24.8923 17.1743 24.8975 17.2756 24.8975C18.4457 24.8975 19.4284 24.4712 20.1983 23.6237C20.2034 23.6134 20.2135 23.6083 20.2186 23.598C20.482 23.2744 20.7859 22.9816 21.105 22.6683C21.3228 22.4577 21.5457 22.2369 21.7635 22.0057C22.265 21.4767 22.5284 20.8604 22.5284 20.2286C22.5284 19.5917 22.2599 18.9805 21.7483 18.4668L18.9674 15.6368ZM20.7808 21.0453C20.7758 21.0453 20.7758 21.0504 20.7808 21.0453C20.5833 21.261 20.3807 21.4562 20.1629 21.6719C19.8336 21.9903 19.4993 22.3242 19.1853 22.6991C18.6737 23.2539 18.0709 23.5158 17.2807 23.5158C17.2047 23.5158 17.1237 23.5158 17.0477 23.5107C15.5433 23.4131 14.1452 22.8173 13.0967 22.3088C10.2297 20.9014 7.7122 18.9034 5.62021 16.3712C3.89292 14.2602 2.73802 12.3084 1.97315 10.2128C1.50207 8.93391 1.32985 7.93747 1.40583 6.99753C1.45648 6.39659 1.68442 5.89837 2.10485 5.47206L3.83214 3.72059C4.08034 3.48432 4.34374 3.35591 4.60207 3.35591C4.92119 3.35591 5.17952 3.55109 5.34161 3.71545C5.34668 3.72059 5.35174 3.72572 5.35681 3.73086C5.6658 4.02363 5.95959 4.32667 6.26858 4.65025C6.4256 4.81462 6.58769 4.97898 6.74978 5.14847L8.13263 6.55068C8.66956 7.09512 8.66956 7.59848 8.13263 8.14292C7.98573 8.29188 7.8439 8.44083 7.69701 8.58464C7.27152 9.02636 6.86629 9.43727 6.4256 9.8379C6.41547 9.84817 6.40534 9.85331 6.40028 9.86358C5.96465 10.3053 6.0457 10.7367 6.13688 11.0295C6.14194 11.0449 6.14701 11.0603 6.15207 11.0757C6.51171 11.9592 7.01825 12.7913 7.78818 13.7826L7.79325 13.7877C9.19129 15.534 10.6653 16.8951 12.2913 17.9378C12.499 18.0714 12.7117 18.1792 12.9143 18.2819C13.0967 18.3744 13.2689 18.4617 13.4158 18.5542C13.4361 18.5644 13.4563 18.5798 13.4766 18.5901C13.6488 18.6774 13.8109 18.7185 13.9781 18.7185C14.3985 18.7185 14.6619 18.4514 14.748 18.3641L16.4803 16.6075C16.6526 16.4329 16.9261 16.2223 17.2452 16.2223C17.5593 16.2223 17.8176 16.4226 17.9746 16.5972C17.9797 16.6024 17.9797 16.6024 17.9848 16.6075L20.7758 19.4376C21.2975 19.9615 21.2975 20.5008 20.7808 21.0453Z" fill="#16ACDC"/>
<path d="M12.9701 6.35051C14.2972 6.57651 15.5028 7.2134 16.4652 8.1893C17.4276 9.16519 18.0507 10.3876 18.2786 11.7333C18.3343 12.0723 18.6231 12.3086 18.9523 12.3086C18.9928 12.3086 19.0283 12.3035 19.0688 12.2983C19.4437 12.2367 19.6919 11.8771 19.6311 11.4971C19.3575 9.86886 18.5977 8.38448 17.4378 7.20827C16.2778 6.03206 14.8139 5.26162 13.2082 4.98426C12.8333 4.92262 12.4838 5.1743 12.418 5.54925C12.3521 5.9242 12.5953 6.28887 12.9701 6.35051Z" fill="#16ACDC"/>
<path d="M23.9721 11.2966C23.5213 8.61551 22.2752 6.17578 20.3605 4.23426C18.4458 2.29275 16.0397 1.02922 13.3956 0.572095C13.0258 0.505323 12.6763 0.762137 12.6105 1.13709C12.5497 1.51717 12.7979 1.87157 13.1727 1.93834C15.5332 2.34411 17.686 3.47923 19.3981 5.21016C21.1101 6.94622 22.2245 9.12914 22.6247 11.5226C22.6804 11.8616 22.9691 12.0979 23.2984 12.0979C23.3389 12.0979 23.3744 12.0928 23.4149 12.0876C23.7847 12.0311 24.0379 11.6716 23.9721 11.2966Z" fill="#16ACDC"/>
</g>
<defs>
<clipPath id="clip0">
<rect width="24" height="24.336" fill="white" transform="translate(0 0.561523)"/>
</clipPath>
</defs>
</svg>
